REM DIRINDEX 1\2\4\8,1\2\4\9,1\2\4\10,1\2\5\11,1\2\5\12,1\2\5\13,1\2\5\14,1\2\5\15,1\3\6\16,1\3\6\17,1\3\6\18,1\3\7\19,1\3\7\20,1\3\7\21,1\3\7\22,1\3\7\23
REM DIRNAME "folder01","folder02","folder03","folder04","folder05","folder06","folder07","folder08","folder09","folder10","folder11","folder12","folder13","folder14","folder15","folder16","folder17","folder18","folder19","folder20","folder21","folder22","folder23"
TITLE ""
FILE "LR_black_phrase_E_S07.mp3" MP3
  TRACK 01 AUDIO
    TITLE "0:"
    INDEX 01 00:00:00
  TRACK 02 AUDIO
    TITLE "16:cjc171_10761"
    INDEX 01 00:00:16
  TRACK 03 AUDIO
    TITLE "0:"
    INDEX 01 00:01:53
  TRACK 04 AUDIO
    TITLE "17:cjc171_10762"
    INDEX 01 00:02:07
  TRACK 05 AUDIO
    TITLE "0:"
    INDEX 01 00:05:04
  TRACK 06 AUDIO
    TITLE "18:cjc171_10763"
    INDEX 01 00:05:57
  TRACK 07 AUDIO
    TITLE "0:"
    INDEX 01 00:08:53
  TRACK 08 AUDIO
    TITLE "16:cjc171_10764"
    INDEX 01 00:09:58
  TRACK 09 AUDIO
    TITLE "0:"
    INDEX 01 00:11:08
  TRACK 10 AUDIO
    TITLE "17:cjc171_10765"
    INDEX 01 00:11:39
  TRACK 11 AUDIO
    TITLE "0:"
    INDEX 01 00:13:48
  TRACK 12 AUDIO
    TITLE "18:cjc171_10766"
    INDEX 01 00:14:26
  TRACK 13 AUDIO
    TITLE "0:"
    INDEX 01 00:16:39
  TRACK 14 AUDIO
    TITLE "16:cjc171_10767"
    INDEX 01 00:17:42
  TRACK 15 AUDIO
    TITLE "0:"
    INDEX 01 00:19:02
  TRACK 16 AUDIO
    TITLE "17:cjc171_10768"
    INDEX 01 00:19:25
  TRACK 17 AUDIO
    TITLE "0:"
    INDEX 01 00:21:50
  TRACK 18 AUDIO
    TITLE "18:cjc171_10769"
    INDEX 01 00:22:22
  TRACK 19 AUDIO
    TITLE "0:"
    INDEX 01 00:24:48
  TRACK 20 AUDIO
    TITLE "16:cjc171_10770"
    INDEX 01 00:25:46
  TRACK 21 AUDIO
    TITLE "0:"
    INDEX 01 00:26:63
  TRACK 22 AUDIO
    TITLE "17:cjc171_10771"
    INDEX 01 00:27:09
  TRACK 23 AUDIO
    TITLE "0:"
    INDEX 01 00:29:37
  TRACK 24 AUDIO
    TITLE "18:cjc171_10772"
    INDEX 01 00:30:11
  TRACK 25 AUDIO
    TITLE "0:"
    INDEX 01 00:32:42
  TRACK 26 AUDIO
    TITLE "16:cjc171_10773"
    INDEX 01 00:33:45
  TRACK 27 AUDIO
    TITLE "0:"
    INDEX 01 00:34:64
  TRACK 28 AUDIO
    TITLE "17:cjc171_10774"
    INDEX 01 00:35:16
  TRACK 29 AUDIO
    TITLE "0:"
    INDEX 01 00:38:15
  TRACK 30 AUDIO
    TITLE "18:cjc171_10775"
    INDEX 01 00:38:72
  TRACK 31 AUDIO
    TITLE "0:"
    INDEX 01 00:41:72
  TRACK 32 AUDIO
    TITLE "16:cjc171_10776"
    INDEX 01 00:43:02
  TRACK 33 AUDIO
    TITLE "0:"
    INDEX 01 00:44:21
  TRACK 34 AUDIO
    TITLE "17:cjc171_10777"
    INDEX 01 00:44:55
  TRACK 35 AUDIO
    TITLE "0:"
    INDEX 01 00:47:27
  TRACK 36 AUDIO
    TITLE "18:cjc171_10778"
    INDEX 01 00:48:13
  TRACK 37 AUDIO
    TITLE "0:"
    INDEX 01 00:50:57
  TRACK 38 AUDIO
    TITLE "16:cjc171_10779"
    INDEX 01 00:51:66
  TRACK 39 AUDIO
    TITLE "0:"
    INDEX 01 00:53:24
  TRACK 40 AUDIO
    TITLE "17:cjc171_10780"
    INDEX 01 00:53:48
  TRACK 41 AUDIO
    TITLE "0:"
    INDEX 01 00:55:45
  TRACK 42 AUDIO
    TITLE "18:cjc171_10781"
    INDEX 01 00:56:17
  TRACK 43 AUDIO
    TITLE "0:"
    INDEX 01 00:58:16
  TRACK 44 AUDIO
    TITLE "16:cjc171_10782"
    INDEX 01 00:59:17
  TRACK 45 AUDIO
    TITLE "0:"
    INDEX 01 01:00:40
  TRACK 46 AUDIO
    TITLE "17:cjc171_10783"
    INDEX 01 01:00:60
  TRACK 47 AUDIO
    TITLE "0:"
    INDEX 01 01:02:64
  TRACK 48 AUDIO
    TITLE "18:cjc171_10784"
    INDEX 01 01:03:34
  TRACK 49 AUDIO
    TITLE "0:"
    INDEX 01 01:05:39
  TRACK 50 AUDIO
    TITLE "16:cjc171_10785"
    INDEX 01 01:06:43
  TRACK 51 AUDIO
    TITLE "0:"
    INDEX 01 01:08:08
  TRACK 52 AUDIO
    TITLE "17:cjc171_10786"
    INDEX 01 01:08:39
  TRACK 53 AUDIO
    TITLE "0:"
    INDEX 01 01:10:66
  TRACK 54 AUDIO
    TITLE "18:cjc171_10787"
    INDEX 01 01:11:46
  TRACK 55 AUDIO
    TITLE "0:"
    INDEX 01 01:13:74
  TRACK 56 AUDIO
    TITLE "16:cjc171_10788"
    INDEX 01 01:15:02
  TRACK 57 AUDIO
    TITLE "0:"
    INDEX 01 01:16:21
  TRACK 58 AUDIO
    TITLE "17:cjc171_10789"
    INDEX 01 01:16:51
  TRACK 59 AUDIO
    TITLE "0:"
    INDEX 01 01:18:32
  TRACK 60 AUDIO
    TITLE "18:cjc171_10790"
    INDEX 01 01:19:14
  TRACK 61 AUDIO
    TITLE "0:"
    INDEX 01 01:20:74
  TRACK 62 AUDIO
    TITLE "16:cjc171_10791"
    INDEX 01 01:22:04
  TRACK 63 AUDIO
    TITLE "0:"
    INDEX 01 01:23:23
  TRACK 64 AUDIO
    TITLE "17:cjc171_10792"
    INDEX 01 01:23:49
  TRACK 65 AUDIO
    TITLE "0:"
    INDEX 01 01:26:00
  TRACK 66 AUDIO
    TITLE "18:cjc171_10793"
    INDEX 01 01:26:47
  TRACK 67 AUDIO
    TITLE "0:"
    INDEX 01 01:29:00
  TRACK 68 AUDIO
    TITLE "16:cjc171_10794"
    INDEX 01 01:29:69
  TRACK 69 AUDIO
    TITLE "0:"
    INDEX 01 01:30:68
  TRACK 70 AUDIO
    TITLE "17:cjc171_10795"
    INDEX 01 01:31:11
  TRACK 71 AUDIO
    TITLE "0:"
    INDEX 01 01:33:00
  TRACK 72 AUDIO
    TITLE "18:cjc171_10796"
    INDEX 01 01:33:45
  TRACK 73 AUDIO
    TITLE "0:"
    INDEX 01 01:35:32
  TRACK 74 AUDIO
    TITLE "16:cjc171_10797"
    INDEX 01 01:36:28
  TRACK 75 AUDIO
    TITLE "0:"
    INDEX 01 01:37:39
  TRACK 76 AUDIO
    TITLE "17:cjc171_10798"
    INDEX 01 01:37:69
  TRACK 77 AUDIO
    TITLE "0:"
    INDEX 01 01:40:26
  TRACK 78 AUDIO
    TITLE "18:cjc171_10799"
    INDEX 01 01:41:10
  TRACK 79 AUDIO
    TITLE "0:"
    INDEX 01 01:43:38
  TRACK 80 AUDIO
    TITLE "16:cjc171_10800"
    INDEX 01 01:44:45
  TRACK 81 AUDIO
    TITLE "0:"
    INDEX 01 01:45:58
  TRACK 82 AUDIO
    TITLE "17:cjc171_10801"
    INDEX 01 01:46:13
  TRACK 83 AUDIO
    TITLE "0:"
    INDEX 01 01:48:00
  TRACK 84 AUDIO
    TITLE "18:cjc171_10802"
    INDEX 01 01:48:55
  TRACK 85 AUDIO
    TITLE "0:"
    INDEX 01 01:50:42
  TRACK 86 AUDIO
    TITLE "16:cjc171_10803"
    INDEX 01 01:51:43
  TRACK 87 AUDIO
    TITLE "0:"
    INDEX 01 01:52:49
  TRACK 88 AUDIO
    TITLE "17:cjc171_10804"
    INDEX 01 01:52:72
  TRACK 89 AUDIO
    TITLE "0:"
    INDEX 01 01:55:43
  TRACK 90 AUDIO
    TITLE "18:cjc171_10805"
    INDEX 01 01:56:15
  TRACK 91 AUDIO
    TITLE "0:"
    INDEX 01 01:58:63
  TRACK 92 AUDIO
    TITLE "16:cjc171_10806"
    INDEX 01 01:59:60
  TRACK 93 AUDIO
    TITLE "0:"
    INDEX 01 02:01:06
  TRACK 94 AUDIO
    TITLE "17:cjc171_10807"
    INDEX 01 02:01:22
  TRACK 95 AUDIO
    TITLE "0:"
    INDEX 01 02:03:13
  TRACK 96 AUDIO
    TITLE "18:cjc171_10808"
    INDEX 01 02:03:58
  TRACK 97 AUDIO
    TITLE "0:"
    INDEX 01 02:05:47
  TRACK 98 AUDIO
    TITLE "16:cjc171_10809"
    INDEX 01 02:06:49
  TRACK 99 AUDIO
    TITLE "0:"
    INDEX 01 02:07:58
  TRACK 100 AUDIO
    TITLE "17:cjc171_10810"
    INDEX 01 02:08:12
  TRACK 101 AUDIO
    TITLE "0:"
    INDEX 01 02:10:33
  TRACK 102 AUDIO
    TITLE "18:cjc171_10811"
    INDEX 01 02:11:13
  TRACK 103 AUDIO
    TITLE "0:"
    INDEX 01 02:13:31
  TRACK 104 AUDIO
    TITLE "16:cjc171_10812"
    INDEX 01 02:14:36
  TRACK 105 AUDIO
    TITLE "0:"
    INDEX 01 02:15:52
  TRACK 106 AUDIO
    TITLE "17:cjc171_10813"
    INDEX 01 02:16:04
  TRACK 107 AUDIO
    TITLE "0:"
    INDEX 01 02:18:34
  TRACK 108 AUDIO
    TITLE "18:cjc171_10814"
    INDEX 01 02:19:12
  TRACK 109 AUDIO
    TITLE "0:"
    INDEX 01 02:21:42
  TRACK 110 AUDIO
    TITLE "16:cjc171_10815"
    INDEX 01 02:22:42
  TRACK 111 AUDIO
    TITLE "0:"
    INDEX 01 02:23:53
  TRACK 112 AUDIO
    TITLE "17:cjc171_10816"
    INDEX 01 02:24:00
  TRACK 113 AUDIO
    TITLE "0:"
    INDEX 01 02:26:18
  TRACK 114 AUDIO
    TITLE "18:cjc171_10817"
    INDEX 01 02:26:63
  TRACK 115 AUDIO
    TITLE "0:"
    INDEX 01 02:29:05
  TRACK 116 AUDIO
    TITLE "16:cjc171_10818"
    INDEX 01 02:30:02
  TRACK 117 AUDIO
    TITLE "0:"
    INDEX 01 02:31:33
  TRACK 118 AUDIO
    TITLE "17:cjc171_10819"
    INDEX 01 02:31:56
  TRACK 119 AUDIO
    TITLE "0:"
    INDEX 01 02:34:12
  TRACK 120 AUDIO
    TITLE "18:cjc171_10820"
    INDEX 01 02:34:61
  TRACK 121 AUDIO
    TITLE "0:"
    INDEX 01 02:37:14
